<?xml version="1.0" encoding="UTF-8" ?>
<!DOCTYPE svg PUBLIC "-//W3C//DTD SVG 1.1//EN" "http://www.w3.org/Graphics/SVG/1.1/DTD/svg11.dtd">
<svg width="60pt" height="13pt" viewBox="0 0 60 13" version="1.1" xmlns="http://www.w3.org/2000/svg">
<path fill="#a1a2a2" d=" M 0.00 0.00 L 1.68 0.00 C 1.95 1.27 1.39 1.87 0.00 1.81 L 0.00 0.00 Z" />
<path fill="#565656" d=" M 1.68 0.00 L 58.19 0.00 C 58.13 1.39 58.73 1.95 60.00 1.68 L 60.00 11.19 C 58.61 11.13 58.04 11.73 58.32 13.00 L 1.80 13.00 C 1.87 11.61 1.27 11.04 -0.00 11.31 L 0.00 1.81 C 1.39 1.87 1.95 1.27 1.68 0.00 Z" />
<path fill="#a1a2a2" d=" M 58.19 0.00 L 60.00 0.00 L 60.00 1.68 C 58.73 1.95 58.13 1.39 58.19 0.00 Z" />
<path fill="#a1a2a2" d=" M 20.02 2.87 C 20.47 2.88 21.37 2.90 21.82 2.91 C 21.82 5.30 21.82 7.69 21.82 10.08 C 21.37 10.10 20.47 10.12 20.02 10.14 C 20.01 7.71 20.01 5.29 20.02 2.87 Z" />
<path fill="#a1a2a2" d=" M 25.25 3.31 C 26.54 4.49 26.53 8.48 25.27 9.71 C 24.46 7.76 24.48 5.27 25.25 3.31 Z" />
<path fill="#a1a2a2" d=" M 29.08 2.89 C 29.54 2.89 30.46 2.90 30.92 2.90 C 30.92 5.30 30.92 7.71 30.92 10.11 C 30.46 10.11 29.54 10.10 29.08 10.10 C 29.08 7.70 29.08 5.29 29.08 2.89 Z" />
<path fill="#a1a2a2" d=" M 34.46 3.31 C 35.85 4.63 35.40 7.89 34.74 9.72 C 33.34 8.39 33.78 5.14 34.46 3.31 Z" />
<path fill="#a1a2a2" d=" M 38.18 2.91 C 38.63 2.90 39.53 2.88 39.98 2.87 C 39.99 5.29 39.99 7.71 39.98 10.13 C 39.53 10.12 38.63 10.10 38.18 10.09 C 38.18 7.70 38.18 5.30 38.18 2.91 Z" />
<path fill="#a1a2a2" d=" M -0.00 11.31 C 1.27 11.04 1.87 11.61 1.80 13.00 L 0.00 13.00 L 0.00 11.31 Z" />
<path fill="#a1a2a2" d=" M 58.32 13.00 C 58.04 11.73 58.61 11.13 60.00 11.19 L 60.00 13.00 L 58.32 13.00 Z" />
</svg>
