<?xml version="1.0" encoding="UTF-8" ?>
<!DOCTYPE svg PUBLIC "-//W3C//DTD SVG 1.1//EN" "http://www.w3.org/Graphics/SVG/1.1/DTD/svg11.dtd">
<svg width="13pt" height="60pt" viewBox="0 0 13 60" version="1.1" xmlns="http://www.w3.org/2000/svg">
<path fill="#a1a2a2" d=" M 0.00 0.00 L 1.68 0.00 C 1.95 1.27 1.39 1.87 0.00 1.81 L 0.00 0.00 Z" />
<path fill="#565656" d=" M 1.68 0.00 L 11.20 0.00 C 11.13 1.39 11.73 1.96 13.00 1.68 L 13.00 58.20 C 11.61 58.13 11.04 58.73 11.31 60.00 L 1.80 60.00 C 1.87 58.60 1.27 58.04 -0.00 58.32 L 0.00 1.81 C 1.39 1.87 1.95 1.27 1.68 0.00 Z" />
<path fill="#a1a2a2" d=" M 11.20 0.00 L 13.00 0.00 L 13.00 1.68 C 11.73 1.96 11.13 1.39 11.20 0.00 Z" />
<path fill="#a1a2a2" d=" M 2.90 20.02 C 5.30 20.01 7.70 20.01 10.10 20.01 C 10.10 20.46 10.12 21.37 10.12 21.82 C 7.71 21.82 5.29 21.82 2.87 21.82 C 2.88 21.37 2.90 20.47 2.90 20.02 Z" />
<path fill="#a1a2a2" d=" M 3.33 25.28 C 5.27 24.49 7.75 24.47 9.70 25.26 C 8.49 26.52 4.49 26.58 3.33 25.28 Z" />
<path fill="#a1a2a2" d=" M 2.90 29.08 C 5.30 29.08 7.70 29.08 10.10 29.08 C 10.10 29.54 10.10 30.46 10.10 30.92 C 7.70 30.92 5.30 30.92 2.90 30.92 C 2.90 30.46 2.90 29.54 2.90 29.08 Z" />
<path fill="#a1a2a2" d=" M 3.30 34.45 C 5.13 33.77 8.37 33.34 9.70 34.74 C 7.87 35.39 4.63 35.84 3.30 34.45 Z" />
<path fill="#a1a2a2" d=" M 2.88 38.18 C 5.29 38.18 7.71 38.18 10.13 38.18 C 10.12 38.63 10.10 39.53 10.09 39.98 C 7.70 39.98 5.30 39.98 2.90 39.98 C 2.90 39.53 2.88 38.63 2.88 38.18 Z" />
<path fill="#a1a2a2" d=" M -0.00 58.32 C 1.27 58.04 1.87 58.60 1.80 60.00 L 0.00 60.00 L 0.00 58.32 Z" />
<path fill="#a1a2a2" d=" M 11.31 60.00 C 11.04 58.73 11.61 58.13 13.00 58.20 L 13.00 60.00 L 11.31 60.00 Z" />
</svg>
